STARTFONT 2.1
FONT -FontForge-ITC Benguiat Gothic Std-Medium-R-Normal--16-150-75-75-P-84-ISO8859-1
SIZE 15 75 75
FONTBOUNDINGBOX 19 19 -3 -4
COMMENT "Generated by fontforge, http://fontforge.sourceforge.net"
COMMENT "Copyright 1990, 1995 , 2002Adobe Systems Incorporated. All Rights Reserved. ITC Benguiat Gothic is a registered trademark of International Typeface Corporation."
STARTPROPERTIES 40
FOUNDRY "FontForge"
FAMILY_NAME "ITC Benguiat Gothic Std"
WEIGHT_NAME "Medium"
SLANT "R"
SETWIDTH_NAME "Normal"
ADD_STYLE_NAME ""
PIXEL_SIZE 16
POINT_SIZE 150
RESOLUTION_X 75
RESOLUTION_Y 75
SPACING "P"
AVERAGE_WIDTH 84
CHARSET_REGISTRY "ISO8859"
CHARSET_ENCODING "1"
FONTNAME_REGISTRY ""
CHARSET_COLLECTIONS "ISOLatin1Encoding"
FONT_NAME "BenguiatGothicStd-Medium"
FACE_NAME "ITC Benguiat Gothic Std Medium"
COPYRIGHT "Copyright 1990, 1995 , 2002Adobe Systems Incorporated. All Rights Reserved. ITC Benguiat Gothic is a registered trademark of International Typeface Corporation."
FONT_VERSION "001.001"
FONT_ASCENT 11
FONT_DESCENT 5
UNDERLINE_POSITION -2
UNDERLINE_THICKNESS 1
X_HEIGHT 8
CAP_HEIGHT 10
RAW_ASCENT 691
RAW_DESCENT 309
NORM_SPACE 5
RELATIVE_WEIGHT 50
RELATIVE_SETWIDTH 50
SUPERSCRIPT_X 0
SUPERSCRIPT_Y 5
SUPERSCRIPT_SIZE 9
SUBSCRIPT_X 0
SUBSCRIPT_Y 1
SUBSCRIPT_SIZE 9
FIGURE_WIDTH 10
AVG_LOWERCASE_WIDTH 80
AVG_UPPERCASE_WIDTH 98
ENDPROPERTIES
CHARS 253
STARTCHAR space
ENCODING 32
SWIDTH 305 0
DWIDTH 5 0
BBX 1 1 0 0
BITMAP
00
ENDCHAR
STARTCHAR exclam
ENCODING 33
SWIDTH 278 0
DWIDTH 4 0
BBX 2 11 1 0
BITMAP
C0
C0
C0
C0
40
40
40
40
00
40
C0
ENDCHAR
STARTCHAR quotedbl
ENCODING 34
SWIDTH 333 0
DWIDTH 5 0
BBX 3 4 1 7
BITMAP
A0
A0
A0
A0
ENDCHAR
STARTCHAR numbersign
ENCODING 35
SWIDTH 611 0
DWIDTH 10 0
BBX 8 11 1 0
BITMAP
12
36
24
FF
24
24
24
FE
64
4C
48
ENDCHAR
STARTCHAR dollar
ENCODING 36
SWIDTH 611 0
DWIDTH 10 0
BBX 7 13 1 -1
BITMAP
30
30
FC
80
E0
3C
36
32
32
3C
F8
30
30
ENDCHAR
STARTCHAR percent
ENCODING 37
SWIDTH 833 0
DWIDTH 13 0
BBX 11 11 1 0
BITMAP
7180
D900
8B00
9A00
7200
0400
05E0
0920
0B20
1120
11C0
ENDCHAR
STARTCHAR ampersand
ENCODING 38
SWIDTH 778 0
DWIDTH 12 0
BBX 11 11 1 0
BITMAP
3C00
6600
6680
6680
7C80
D880
8E80
8380
C180
67C0
3C60
ENDCHAR
STARTCHAR quotesingle
ENCODING 39
SWIDTH 222 0
DWIDTH 4 0
BBX 1 4 1 7
BITMAP
80
80
80
80
ENDCHAR
STARTCHAR parenleft
ENCODING 40
SWIDTH 389 0
DWIDTH 6 0
BBX 4 15 1 -4
BITMAP
10
30
20
40
40
C0
C0
C0
C0
C0
40
40
60
30
10
ENDCHAR
STARTCHAR parenright
ENCODING 41
SWIDTH 389 0
DWIDTH 6 0
BBX 4 15 1 -4
BITMAP
80
C0
60
20
30
30
10
10
10
10
30
20
60
40
80
ENDCHAR
STARTCHAR asterisk
ENCODING 42
SWIDTH 333 0
DWIDTH 5 0
BBX 4 5 1 6
BITMAP
40
F0
E0
D0
40
ENDCHAR
STARTCHAR plus
ENCODING 43
SWIDTH 600 0
DWIDTH 10 0
BBX 8 9 1 0
BITMAP
10
10
10
10
FF
10
10
10
10
ENDCHAR
STARTCHAR comma
ENCODING 44
SWIDTH 305 0
DWIDTH 5 0
BBX 2 4 1 -2
BITMAP
40
C0
C0
80
ENDCHAR
STARTCHAR hyphen
ENCODING 45
SWIDTH 333 0
DWIDTH 5 0
BBX 4 1 1 4
BITMAP
F0
ENDCHAR
STARTCHAR period
ENCODING 46
SWIDTH 305 0
DWIDTH 5 0
BBX 1 2 2 0
BITMAP
80
80
ENDCHAR
STARTCHAR slash
ENCODING 47
SWIDTH 278 0
DWIDTH 4 0
BBX 6 11 -1 0
BITMAP
04
0C
08
18
10
10
20
20
60
40
C0
ENDCHAR
STARTCHAR zero
ENCODING 48
SWIDTH 611 0
DWIDTH 10 0
BBX 8 11 1 0
BITMAP
3C
66
C2
83
81
81
81
83
C2
66
3C
ENDCHAR
STARTCHAR one
ENCODING 49
SWIDTH 611 0
DWIDTH 10 0
BBX 6 11 2 0
BITMAP
30
F0
30
30
30
30
30
30
30
30
FC
ENDCHAR
STARTCHAR two
ENCODING 50
SWIDTH 611 0
DWIDTH 10 0
BBX 8 11 1 0
BITMAP
FC
06
02
02
06
1C
30
60
C0
80
FF
ENDCHAR
STARTCHAR three
ENCODING 51
SWIDTH 611 0
DWIDTH 10 0
BBX 8 11 1 0
BITMAP
FE
0C
30
7C
06
02
03
03
02
06
FC
ENDCHAR
STARTCHAR four
ENCODING 52
SWIDTH 611 0
DWIDTH 10 0
BBX 8 11 1 0
BITMAP
0C
1C
34
64
C4
C4
84
FF
04
04
04
ENDCHAR
STARTCHAR five
ENCODING 53
SWIDTH 611 0
DWIDTH 10 0
BBX 8 11 1 0
BITMAP
7E
40
C0
FC
06
03
03
03
03
06
FC
ENDCHAR
STARTCHAR six
ENCODING 54
SWIDTH 611 0
DWIDTH 10 0
BBX 8 11 1 0
BITMAP
3F
60
C0
BC
E7
C3
C1
C1
C3
66
3C
ENDCHAR
STARTCHAR seven
ENCODING 55
SWIDTH 611 0
DWIDTH 10 0
BBX 7 11 1 0
BITMAP
FE
02
06
04
0C
08
18
30
30
20
20
ENDCHAR
STARTCHAR eight
ENCODING 56
SWIDTH 611 0
DWIDTH 10 0
BBX 8 11 1 0
BITMAP
3C
66
C2
C6
3C
C6
83
81
83
C6
3C
ENDCHAR
STARTCHAR nine
ENCODING 57
SWIDTH 611 0
DWIDTH 10 0
BBX 8 11 1 0
BITMAP
3C
E6
83
83
83
83
E5
7B
03
06
FC
ENDCHAR
STARTCHAR colon
ENCODING 58
SWIDTH 305 0
DWIDTH 5 0
BBX 1 7 2 0
BITMAP
80
80
00
00
00
80
80
ENDCHAR
STARTCHAR semicolon
ENCODING 59
SWIDTH 305 0
DWIDTH 5 0
BBX 2 9 1 -2
BITMAP
40
40
00
00
00
40
C0
80
80
ENDCHAR
STARTCHAR less
ENCODING 60
SWIDTH 600 0
DWIDTH 10 0
BBX 8 9 1 0
BITMAP
01
07
1C
70
80
60
1C
07
01
ENDCHAR
STARTCHAR equal
ENCODING 61
SWIDTH 600 0
DWIDTH 10 0
BBX 8 4 1 2
BITMAP
FF
00
00
FF
ENDCHAR
STARTCHAR greater
ENCODING 62
SWIDTH 600 0
DWIDTH 10 0
BBX 8 9 1 0
BITMAP
80
E0
38
0E
03
0E
38
E0
80
ENDCHAR
STARTCHAR question
ENCODING 63
SWIDTH 500 0
DWIDTH 8 0
BBX 7 11 0 0
BITMAP
FC
06
02
06
0C
18
30
30
00
20
30
ENDCHAR
STARTCHAR at
ENCODING 64
SWIDTH 800 0
DWIDTH 13 0
BBX 11 11 1 0
BITMAP
1F00
30C0
4040
CEA0
9120
B120
A120
B340
5F80
60C0
1F00
ENDCHAR
STARTCHAR A
ENCODING 65
SWIDTH 667 0
DWIDTH 11 0
BBX 9 11 1 0
BITMAP
1800
1C00
3400
6600
6200
7B00
C700
C380
8180
8180
8080
ENDCHAR
STARTCHAR B
ENCODING 66
SWIDTH 611 0
DWIDTH 10 0
BBX 8 11 1 0
BITMAP
FE
C3
F2
DE
C6
C3
C1
C1
C1
C3
FE
ENDCHAR
STARTCHAR C
ENCODING 67
SWIDTH 611 0
DWIDTH 10 0
BBX 8 11 1 0
BITMAP
3F
60
C0
80
80
80
C0
C0
60
3C
0F
ENDCHAR
STARTCHAR D
ENCODING 68
SWIDTH 667 0
DWIDTH 11 0
BBX 9 11 1 0
BITMAP
F800
DC00
C700
C300
C180
C180
C180
C180
C180
C300
FE00
ENDCHAR
STARTCHAR E
ENCODING 69
SWIDTH 556 0
DWIDTH 9 0
BBX 7 11 1 0
BITMAP
FE
C0
FE
C0
C0
C0
C0
C0
C0
C0
FE
ENDCHAR
STARTCHAR F
ENCODING 70
SWIDTH 500 0
DWIDTH 8 0
BBX 7 11 1 0
BITMAP
FE
C0
FE
C0
C0
C0
C0
C0
C0
C0
C0
ENDCHAR
STARTCHAR G
ENCODING 71
SWIDTH 667 0
DWIDTH 11 0
BBX 9 11 1 0
BITMAP
7F00
E000
8F80
8180
8180
8180
C180
C180
6180
3D80
0F80
ENDCHAR
STARTCHAR H
ENCODING 72
SWIDTH 611 0
DWIDTH 10 0
BBX 8 11 1 0
BITMAP
C3
C3
FF
C3
C3
C3
C3
C3
C3
C3
C3
ENDCHAR
STARTCHAR I
ENCODING 73
SWIDTH 222 0
DWIDTH 4 0
BBX 1 11 1 0
BITMAP
80
80
80
80
80
80
80
80
80
80
80
ENDCHAR
STARTCHAR J
ENCODING 74
SWIDTH 444 0
DWIDTH 7 0
BBX 6 11 0 0
BITMAP
04
0C
0C
0C
0C
0C
0C
0C
0C
D8
F0
ENDCHAR
STARTCHAR K
ENCODING 75
SWIDTH 611 0
DWIDTH 10 0
BBX 8 11 1 0
BITMAP
C3
C2
C6
FC
CC
C6
C2
C3
C1
C1
C1
ENDCHAR
STARTCHAR L
ENCODING 76
SWIDTH 444 0
DWIDTH 7 0
BBX 6 11 1 0
BITMAP
C0
C0
C0
C0
C0
C0
C0
C0
C0
C0
FC
ENDCHAR
STARTCHAR M
ENCODING 77
SWIDTH 722 0
DWIDTH 12 0
BBX 10 11 1 0
BITMAP
4100
6380
7280
5680
DC80
CC80
8080
8080
8080
80C0
8080
ENDCHAR
STARTCHAR N
ENCODING 78
SWIDTH 611 0
DWIDTH 10 0
BBX 8 11 1 0
BITMAP
C3
E3
F3
DF
C7
C3
C3
C3
C3
C3
83
ENDCHAR
STARTCHAR O
ENCODING 79
SWIDTH 722 0
DWIDTH 12 0
BBX 10 11 1 0
BITMAP
1E00
7300
C180
C0C0
80C0
80C0
80C0
C0C0
C180
7300
1E00
ENDCHAR
STARTCHAR P
ENCODING 80
SWIDTH 556 0
DWIDTH 9 0
BBX 8 11 1 0
BITMAP
FE
C3
C3
C6
FC
F0
C0
C0
C0
C0
C0
ENDCHAR
STARTCHAR Q
ENCODING 81
SWIDTH 722 0
DWIDTH 12 0
BBX 10 13 1 -2
BITMAP
1E00
7300
4180
C0C0
80C0
80C0
80C0
F8C0
CD80
7700
1E00
0300
01C0
ENDCHAR
STARTCHAR R
ENCODING 82
SWIDTH 667 0
DWIDTH 11 0
BBX 9 11 1 0
BITMAP
FF00
C100
F300
FE00
C600
C300
C100
C180
C180
C080
C080
ENDCHAR
STARTCHAR S
ENCODING 83
SWIDTH 611 0
DWIDTH 10 0
BBX 8 11 1 0
BITMAP
FE
80
80
FC
0E
03
01
01
03
06
FC
ENDCHAR
STARTCHAR T
ENCODING 84
SWIDTH 500 0
DWIDTH 8 0
BBX 8 11 0 0
BITMAP
FF
18
18
18
18
18
18
18
18
18
18
ENDCHAR
STARTCHAR U
ENCODING 85
SWIDTH 611 0
DWIDTH 10 0
BBX 8 11 1 0
BITMAP
C2
C2
C3
83
83
81
81
81
83
E6
3C
ENDCHAR
STARTCHAR V
ENCODING 86
SWIDTH 611 0
DWIDTH 10 0
BBX 9 11 0 0
BITMAP
C080
C080
4080
4180
6180
2100
2300
3200
1200
1C00
0C00
ENDCHAR
STARTCHAR W
ENCODING 87
SWIDTH 833 0
DWIDTH 13 0
BBX 12 11 1 0
BITMAP
8430
8430
8630
8630
8E20
CE20
CA60
4B60
5940
71C0
3080
ENDCHAR
STARTCHAR X
ENCODING 88
SWIDTH 611 0
DWIDTH 10 0
BBX 9 11 0 0
BITMAP
6180
6100
3300
1E00
1C00
3200
2300
6180
4180
C080
C080
ENDCHAR
STARTCHAR Y
ENCODING 89
SWIDTH 556 0
DWIDTH 9 0
BBX 8 11 0 0
BITMAP
C1
41
63
22
36
1C
08
08
08
08
08
ENDCHAR
STARTCHAR Z
ENCODING 90
SWIDTH 500 0
DWIDTH 8 0
BBX 6 11 1 0
BITMAP
FC
04
04
0C
18
30
60
C0
80
80
FC
ENDCHAR
STARTCHAR bracketleft
ENCODING 91
SWIDTH 389 0
DWIDTH 6 0
BBX 4 16 1 -4
BITMAP
F0
C0
C0
C0
C0
C0
C0
C0
C0
C0
C0
C0
C0
C0
C0
F0
ENDCHAR
STARTCHAR backslash
ENCODING 92
SWIDTH 278 0
DWIDTH 4 0
BBX 6 11 -1 0
BITMAP
C0
40
60
20
20
10
10
18
08
0C
04
ENDCHAR
STARTCHAR bracketright
ENCODING 93
SWIDTH 389 0
DWIDTH 6 0
BBX 4 16 1 -4
BITMAP
F0
10
10
10
10
10
10
10
10
10
10
10
10
10
10
F0
ENDCHAR
STARTCHAR asciicircum
ENCODING 94
SWIDTH 600 0
DWIDTH 10 0
BBX 7 7 1 4
BITMAP
18
38
2C
24
46
42
82
ENDCHAR
STARTCHAR underscore
ENCODING 95
SWIDTH 500 0
DWIDTH 8 0
BBX 8 1 0 -2
BITMAP
FF
ENDCHAR
STARTCHAR grave
ENCODING 96
SWIDTH 222 0
DWIDTH 4 0
BBX 4 2 0 9
BITMAP
C0
30
ENDCHAR
STARTCHAR a
ENCODING 97
SWIDTH 500 0
DWIDTH 8 0
BBX 7 9 0 0
BITMAP
7C
06
02
3E
62
C2
C2
C6
7A
ENDCHAR
STARTCHAR b
ENCODING 98
SWIDTH 556 0
DWIDTH 9 0
BBX 7 11 1 0
BITMAP
80
80
F0
9C
86
86
82
82
82
86
FC
ENDCHAR
STARTCHAR c
ENCODING 99
SWIDTH 500 0
DWIDTH 8 0
BBX 7 9 1 0
BITMAP
7C
C0
80
80
80
80
C0
60
3E
ENDCHAR
STARTCHAR d
ENCODING 100
SWIDTH 556 0
DWIDTH 9 0
BBX 7 11 1 0
BITMAP
06
06
1E
76
C6
86
86
86
86
C6
7E
ENDCHAR
STARTCHAR e
ENCODING 101
SWIDTH 556 0
DWIDTH 9 0
BBX 7 9 1 0
BITMAP
3C
66
C2
82
FE
80
80
C0
3E
ENDCHAR
STARTCHAR f
ENCODING 102
SWIDTH 333 0
DWIDTH 5 0
BBX 5 11 1 0
BITMAP
78
40
F0
40
40
40
40
40
40
40
40
ENDCHAR
STARTCHAR g
ENCODING 103
SWIDTH 556 0
DWIDTH 9 0
BBX 9 13 0 -4
BITMAP
1F00
3300
6300
4300
4300
4300
4300
6300
3F00
0180
0180
E300
7E00
ENDCHAR
STARTCHAR h
ENCODING 104
SWIDTH 556 0
DWIDTH 9 0
BBX 7 11 1 0
BITMAP
80
80
BC
EC
C6
86
86
86
86
86
86
ENDCHAR
STARTCHAR i
ENCODING 105
SWIDTH 222 0
DWIDTH 4 0
BBX 1 12 1 0
BITMAP
80
80
00
80
80
80
80
80
80
80
80
80
ENDCHAR
STARTCHAR j
ENCODING 106
SWIDTH 222 0
DWIDTH 4 0
BBX 5 16 -3 -4
BITMAP
08
08
00
08
08
08
08
08
08
08
08
08
08
08
18
F0
ENDCHAR
STARTCHAR k
ENCODING 107
SWIDTH 500 0
DWIDTH 8 0
BBX 7 11 1 0
BITMAP
80
80
84
8C
98
F0
8C
84
86
86
86
ENDCHAR
STARTCHAR l
ENCODING 108
SWIDTH 222 0
DWIDTH 4 0
BBX 1 11 1 0
BITMAP
80
80
80
80
80
80
80
80
80
80
80
ENDCHAR
STARTCHAR m
ENCODING 109
SWIDTH 889 0
DWIDTH 14 0
BBX 12 9 1 0
BITMAP
BDE0
EF30
C610
8610
8610
8610
8610
8610
8610
ENDCHAR
STARTCHAR n
ENCODING 110
SWIDTH 556 0
DWIDTH 9 0
BBX 7 9 1 0
BITMAP
BC
EC
C6
86
86
86
86
86
86
ENDCHAR
STARTCHAR o
ENCODING 111
SWIDTH 556 0
DWIDTH 9 0
BBX 7 9 1 0
BITMAP
38
4C
86
82
82
82
86
CC
38
ENDCHAR
STARTCHAR p
ENCODING 112
SWIDTH 556 0
DWIDTH 9 0
BBX 7 13 1 -4
BITMAP
F0
9C
86
82
82
82
82
8E
FC
80
80
80
80
ENDCHAR
STARTCHAR q
ENCODING 113
SWIDTH 556 0
DWIDTH 9 0
BBX 7 13 1 -4
BITMAP
3E
72
C2
82
82
82
82
C2
7E
02
02
02
02
ENDCHAR
STARTCHAR r
ENCODING 114
SWIDTH 333 0
DWIDTH 5 0
BBX 4 9 1 0
BITMAP
B0
E0
C0
80
80
80
80
80
80
ENDCHAR
STARTCHAR s
ENCODING 115
SWIDTH 500 0
DWIDTH 8 0
BBX 8 9 0 0
BITMAP
7E
40
60
7E
06
03
02
06
FC
ENDCHAR
STARTCHAR t
ENCODING 116
SWIDTH 333 0
DWIDTH 5 0
BBX 4 11 1 0
BITMAP
40
40
F0
40
40
40
40
40
40
40
70
ENDCHAR
STARTCHAR u
ENCODING 117
SWIDTH 556 0
DWIDTH 9 0
BBX 7 9 1 0
BITMAP
86
86
86
86
86
86
C6
CE
7A
ENDCHAR
STARTCHAR v
ENCODING 118
SWIDTH 500 0
DWIDTH 8 0
BBX 8 9 0 0
BITMAP
C3
C3
42
42
66
24
3C
18
18
ENDCHAR
STARTCHAR w
ENCODING 119
SWIDTH 722 0
DWIDTH 12 0
BBX 11 9 0 0
BITMAP
4420
C420
4620
4620
4E60
4A40
6940
39C0
3080
ENDCHAR
STARTCHAR x
ENCODING 120
SWIDTH 500 0
DWIDTH 8 0
BBX 8 9 0 0
BITMAP
42
42
66
24
3C
3C
66
42
C3
ENDCHAR
STARTCHAR y
ENCODING 121
SWIDTH 500 0
DWIDTH 8 0
BBX 8 13 0 -4
BITMAP
41
C3
43
42
62
66
24
3C
18
18
30
30
20
ENDCHAR
STARTCHAR z
ENCODING 122
SWIDTH 444 0
DWIDTH 7 0
BBX 7 9 0 0
BITMAP
7E
06
0C
18
30
60
40
C0
FE
ENDCHAR
STARTCHAR braceleft
ENCODING 123
SWIDTH 389 0
DWIDTH 6 0
BBX 5 16 1 -4
BITMAP
38
40
40
40
40
40
40
80
40
40
40
40
40
40
40
38
ENDCHAR
STARTCHAR bar
ENCODING 124
SWIDTH 222 0
DWIDTH 4 0
BBX 1 16 1 -4
BITMAP
80
80
80
80
80
80
80
80
80
80
80
80
80
80
80
80
ENDCHAR
STARTCHAR braceright
ENCODING 125
SWIDTH 389 0
DWIDTH 6 0
BBX 5 16 1 -4
BITMAP
E0
20
20
20
20
20
30
18
30
20
20
20
20
20
20
E0
ENDCHAR
STARTCHAR asciitilde
ENCODING 126
SWIDTH 600 0
DWIDTH 10 0
BBX 7 2 1 3
BITMAP
7A
8E
ENDCHAR
STARTCHAR uni00A0
ENCODING 160
SWIDTH 305 0
DWIDTH 5 0
BBX 1 1 0 0
BITMAP
00
ENDCHAR
STARTCHAR exclamdown
ENCODING 161
SWIDTH 278 0
DWIDTH 4 0
BBX 2 12 1 -4
BITMAP
40
40
00
40
40
40
40
C0
C0
C0
C0
C0
ENDCHAR
STARTCHAR cent
ENCODING 162
SWIDTH 611 0
DWIDTH 10 0
BBX 7 11 1 0
BITMAP
08
08
3E
48
C8
C8
48
68
1E
08
08
ENDCHAR
STARTCHAR sterling
ENCODING 163
SWIDTH 611 0
DWIDTH 10 0
BBX 9 11 0 0
BITMAP
0F80
1880
1000
1000
3F00
1000
1000
1000
1000
7000
FF00
ENDCHAR
STARTCHAR currency
ENCODING 164
SWIDTH 611 0
DWIDTH 10 0
BBX 8 7 1 2
BITMAP
BF
46
83
81
83
46
BF
ENDCHAR
STARTCHAR yen
ENCODING 165
SWIDTH 611 0
DWIDTH 10 0
BBX 8 11 1 0
BITMAP
81
C3
C2
66
FF
18
FF
18
18
18
18
ENDCHAR
STARTCHAR brokenbar
ENCODING 166
SWIDTH 222 0
DWIDTH 4 0
BBX 1 14 1 -3
BITMAP
80
80
80
80
80
80
00
00
80
80
80
80
80
80
ENDCHAR
STARTCHAR section
ENCODING 167
SWIDTH 500 0
DWIDTH 8 0
BBX 6 11 1 0
BITMAP
78
C0
C0
F8
9C
E4
3C
0C
04
0C
F8
ENDCHAR
STARTCHAR dieresis
ENCODING 168
SWIDTH 222 0
DWIDTH 4 0
BBX 5 2 -1 9
BITMAP
C8
C8
ENDCHAR
STARTCHAR copyright
ENCODING 169
SWIDTH 800 0
DWIDTH 13 0
BBX 11 11 1 0
BITMAP
1F00
2180
4E40
9160
B020
B020
B020
9160
4E40
2080
1F00
ENDCHAR
STARTCHAR ordfeminine
ENCODING 170
SWIDTH 300 0
DWIDTH 5 0
BBX 4 5 0 6
BITMAP
F0
10
70
90
F0
ENDCHAR
STARTCHAR guillemotleft
ENCODING 171
SWIDTH 444 0
DWIDTH 7 0
BBX 5 6 1 1
BITMAP
48
D8
90
90
D8
48
ENDCHAR
STARTCHAR logicalnot
ENCODING 172
SWIDTH 600 0
DWIDTH 10 0
BBX 8 4 1 2
BITMAP
FF
01
01
01
ENDCHAR
STARTCHAR uni00AD
ENCODING 173
SWIDTH 333 0
DWIDTH 5 0
BBX 4 1 1 4
BITMAP
F0
ENDCHAR
STARTCHAR registered
ENCODING 174
SWIDTH 800 0
DWIDTH 13 0
BBX 11 11 1 0
BITMAP
1F00
6080
5E40
9160
9120
9E20
9220
9260
5140
2180
1F00
ENDCHAR
STARTCHAR macron
ENCODING 175
SWIDTH 222 0
DWIDTH 4 0
BBX 4 1 0 10
BITMAP
F0
ENDCHAR
STARTCHAR degree
ENCODING 176
SWIDTH 400 0
DWIDTH 6 0
BBX 4 5 1 6
BITMAP
70
90
90
90
70
ENDCHAR
STARTCHAR plusminus
ENCODING 177
SWIDTH 600 0
DWIDTH 10 0
BBX 8 9 1 0
BITMAP
10
10
FF
10
10
10
00
00
FF
ENDCHAR
STARTCHAR twosuperior
ENCODING 178
SWIDTH 366 0
DWIDTH 6 0
BBX 5 7 0 4
BITMAP
F8
08
08
30
60
80
F8
ENDCHAR
STARTCHAR threesuperior
ENCODING 179
SWIDTH 366 0
DWIDTH 6 0
BBX 5 7 0 4
BITMAP
F8
20
70
08
08
08
F0
ENDCHAR
STARTCHAR acute
ENCODING 180
SWIDTH 222 0
DWIDTH 4 0
BBX 4 2 0 9
BITMAP
70
C0
ENDCHAR
STARTCHAR mu
ENCODING 181
SWIDTH 556 0
DWIDTH 9 0
BBX 7 13 1 -4
BITMAP
86
86
86
86
86
86
C6
CE
FA
80
80
80
80
ENDCHAR
STARTCHAR paragraph
ENCODING 182
SWIDTH 600 0
DWIDTH 10 0
BBX 7 11 1 0
BITMAP
7E
F2
F2
F2
F2
72
12
12
12
12
12
ENDCHAR
STARTCHAR periodcentered
ENCODING 183
SWIDTH 305 0
DWIDTH 5 0
BBX 1 2 2 3
BITMAP
80
80
ENDCHAR
STARTCHAR cedilla
ENCODING 184
SWIDTH 222 0
DWIDTH 4 0
BBX 4 4 0 -4
BITMAP
40
60
10
F0
ENDCHAR
STARTCHAR onesuperior
ENCODING 185
SWIDTH 366 0
DWIDTH 6 0
BBX 4 7 1 4
BITMAP
C0
40
40
40
40
40
F0
ENDCHAR
STARTCHAR ordmasculine
ENCODING 186
SWIDTH 334 0
DWIDTH 5 0
BBX 5 5 0 6
BITMAP
70
88
88
88
70
ENDCHAR
STARTCHAR guillemotright
ENCODING 187
SWIDTH 444 0
DWIDTH 7 0
BBX 5 6 1 1
BITMAP
90
58
48
48
D8
90
ENDCHAR
STARTCHAR onequarter
ENCODING 188
SWIDTH 916 0
DWIDTH 15 0
BBX 13 11 1 0
BITMAP
C040
40C0
4080
4100
4300
4270
F4D0
0C90
0910
11F8
2010
ENDCHAR
STARTCHAR onehalf
ENCODING 189
SWIDTH 916 0
DWIDTH 15 0
BBX 13 11 1 0
BITMAP
C040
4080
4180
4100
42F0
4610
F410
0810
1060
3080
20F8
ENDCHAR
STARTCHAR threequarters
ENCODING 190
SWIDTH 916 0
DWIDTH 15 0
BBX 13 11 1 0
BITMAP
F060
6040
F080
1980
0900
1A70
F650
0490
0890
11F8
1010
ENDCHAR
STARTCHAR questiondown
ENCODING 191
SWIDTH 500 0
DWIDTH 8 0
BBX 7 12 1 -4
BITMAP
18
18
00
18
18
30
60
C0
80
80
C0
7E
ENDCHAR
STARTCHAR Agrave
ENCODING 192
SWIDTH 667 0
DWIDTH 11 0
BBX 9 14 1 0
BITMAP
3000
3C00
0000
1800
1C00
3400
6600
6200
7B00
C700
C380
8180
8180
8080
ENDCHAR
STARTCHAR Aacute
ENCODING 193
SWIDTH 667 0
DWIDTH 11 0
BBX 9 14 1 0
BITMAP
0400
1C00
2000
1800
1C00
3400
6600
6200
7B00
C700
C380
8180
8180
8080
ENDCHAR
STARTCHAR Acircumflex
ENCODING 194
SWIDTH 667 0
DWIDTH 11 0
BBX 9 14 1 0
BITMAP
1800
1400
2000
1800
1C00
3400
6600
6200
7B00
C700
C380
8180
8180
8080
ENDCHAR
STARTCHAR Atilde
ENCODING 195
SWIDTH 667 0
DWIDTH 11 0
BBX 9 14 1 0
BITMAP
1200
3E00
0000
1800
1C00
3400
6600
6200
7B00
C700
C380
8180
8180
8080
ENDCHAR
STARTCHAR Adieresis
ENCODING 196
SWIDTH 667 0
DWIDTH 11 0
BBX 9 14 1 0
BITMAP
2600
2600
0000
1800
1C00
3400
6600
6200
7B00
C700
C380
8180
8180
8080
ENDCHAR
STARTCHAR Aring
ENCODING 197
SWIDTH 667 0
DWIDTH 11 0
BBX 9 15 1 0
BITMAP
0800
1400
1C00
0000
1800
1C00
3400
6600
6200
7B00
C700
C380
8180
8180
8080
ENDCHAR
STARTCHAR AE
ENCODING 198
SWIDTH 944 0
DWIDTH 15 0
BBX 15 11 0 0
BITMAP
01FC
0680
08FC
13C0
3C80
3880
7080
6080
4080
C080
80FE
ENDCHAR
STARTCHAR Ccedilla
ENCODING 199
SWIDTH 611 0
DWIDTH 10 0
BBX 8 15 1 -4
BITMAP
3F
60
C0
80
80
80
C0
C0
60
3C
0F
08
0E
02
1E
ENDCHAR
STARTCHAR Egrave
ENCODING 200
SWIDTH 556 0
DWIDTH 9 0
BBX 7 14 1 0
BITMAP
20
38
00
FE
C0
FE
C0
C0
C0
C0
C0
C0
C0
FE
ENDCHAR
STARTCHAR Eacute
ENCODING 201
SWIDTH 556 0
DWIDTH 9 0
BBX 7 14 1 0
BITMAP
0C
38
00
FE
C0
FE
C0
C0
C0
C0
C0
C0
C0
FE
ENDCHAR
STARTCHAR Ecircumflex
ENCODING 202
SWIDTH 556 0
DWIDTH 9 0
BBX 7 14 1 0
BITMAP
10
28
00
FE
C0
FE
C0
C0
C0
C0
C0
C0
C0
FE
ENDCHAR
STARTCHAR Edieresis
ENCODING 203
SWIDTH 556 0
DWIDTH 9 0
BBX 7 14 1 0
BITMAP
44
6C
00
FE
C0
FE
C0
C0
C0
C0
C0
C0
C0
FE
ENDCHAR
STARTCHAR Igrave
ENCODING 204
SWIDTH 222 0
DWIDTH 4 0
BBX 4 14 0 0
BITMAP
80
F0
10
40
40
40
40
40
40
40
40
40
40
40
ENDCHAR
STARTCHAR Iacute
ENCODING 205
SWIDTH 222 0
DWIDTH 4 0
BBX 4 14 0 0
BITMAP
30
F0
00
40
40
40
40
40
40
40
40
40
40
40
ENDCHAR
STARTCHAR Icircumflex
ENCODING 206
SWIDTH 222 0
DWIDTH 4 0
BBX 4 14 0 0
BITMAP
60
B0
00
40
40
40
40
40
40
40
40
40
40
40
ENDCHAR
STARTCHAR Idieresis
ENCODING 207
SWIDTH 222 0
DWIDTH 4 0
BBX 5 14 -1 0
BITMAP
C8
C8
00
20
20
20
20
20
20
20
20
20
20
20
ENDCHAR
STARTCHAR Eth
ENCODING 208
SWIDTH 667 0
DWIDTH 11 0
BBX 10 11 0 0
BITMAP
7C00
6E00
6300
6180
60C0
FCC0
60C0
60C0
60C0
6180
7F00
ENDCHAR
STARTCHAR Ntilde
ENCODING 209
SWIDTH 611 0
DWIDTH 10 0
BBX 8 14 1 0
BITMAP
02
3C
40
C3
E3
F3
DF
C7
C3
C3
C3
C3
C3
83
ENDCHAR
STARTCHAR Ograve
ENCODING 210
SWIDTH 722 0
DWIDTH 12 0
BBX 10 14 1 0
BITMAP
1000
1E00
0200
1E00
7300
C180
C0C0
80C0
80C0
80C0
C0C0
C180
7300
1E00
ENDCHAR
STARTCHAR Oacute
ENCODING 211
SWIDTH 722 0
DWIDTH 12 0
BBX 10 14 1 0
BITMAP
0200
1E00
0000
1E00
7300
C180
C0C0
80C0
80C0
80C0
C0C0
C180
7300
1E00
ENDCHAR
STARTCHAR Ocircumflex
ENCODING 212
SWIDTH 722 0
DWIDTH 12 0
BBX 10 14 1 0
BITMAP
0C00
1600
0000
1E00
7300
C180
C0C0
80C0
80C0
80C0
C0C0
C180
7300
1E00
ENDCHAR
STARTCHAR Otilde
ENCODING 213
SWIDTH 722 0
DWIDTH 12 0
BBX 10 14 1 0
BITMAP
1100
3E00
0000
1E00
7300
C180
C0C0
80C0
80C0
80C0
C0C0
C180
7300
1E00
ENDCHAR
STARTCHAR Odieresis
ENCODING 214
SWIDTH 722 0
DWIDTH 12 0
BBX 10 14 1 0
BITMAP
3200
3200
0000
1E00
7300
C180
C0C0
80C0
80C0
80C0
C0C0
C180
7300
1E00
ENDCHAR
STARTCHAR multiply
ENCODING 215
SWIDTH 600 0
DWIDTH 10 0
BBX 7 9 1 0
BITMAP
82
C2
66
3C
18
3C
66
C2
82
ENDCHAR
STARTCHAR Oslash
ENCODING 216
SWIDTH 722 0
DWIDTH 12 0
BBX 10 14 1 -2
BITMAP
0100
1F00
7300
C380
C4C0
84C0
88C0
88C0
D0C0
D180
7300
3E00
4000
4000
ENDCHAR
STARTCHAR Ugrave
ENCODING 217
SWIDTH 611 0
DWIDTH 10 0
BBX 8 14 1 0
BITMAP
20
3C
00
C2
C2
C3
83
83
81
81
81
83
E6
3C
ENDCHAR
STARTCHAR Uacute
ENCODING 218
SWIDTH 611 0
DWIDTH 10 0
BBX 8 14 1 0
BITMAP
04
3C
00
C2
C2
C3
83
83
81
81
81
83
E6
3C
ENDCHAR
STARTCHAR Ucircumflex
ENCODING 219
SWIDTH 611 0
DWIDTH 10 0
BBX 8 14 1 0
BITMAP
18
2C
00
C2
C2
C3
83
83
81
81
81
83
E6
3C
ENDCHAR
STARTCHAR Udieresis
ENCODING 220
SWIDTH 611 0
DWIDTH 10 0
BBX 8 14 1 0
BITMAP
24
64
00
C2
C2
C3
83
83
81
81
81
83
E6
3C
ENDCHAR
STARTCHAR Yacute
ENCODING 221
SWIDTH 556 0
DWIDTH 9 0
BBX 8 14 0 0
BITMAP
06
1E
00
C1
41
63
22
36
1C
08
08
08
08
08
ENDCHAR
STARTCHAR Thorn
ENCODING 222
SWIDTH 556 0
DWIDTH 9 0
BBX 8 11 1 0
BITMAP
C0
C0
FE
C3
C3
C6
FC
E0
C0
C0
C0
ENDCHAR
STARTCHAR germandbls
ENCODING 223
SWIDTH 556 0
DWIDTH 9 0
BBX 9 11 0 0
BITMAP
3C00
6600
EC00
7800
7800
6E00
6300
6180
6180
6300
7E00
ENDCHAR
STARTCHAR agrave
ENCODING 224
SWIDTH 500 0
DWIDTH 8 0
BBX 7 12 0 0
BITMAP
30
0C
00
7C
06
02
3E
62
C2
C2
C6
7A
ENDCHAR
STARTCHAR aacute
ENCODING 225
SWIDTH 500 0
DWIDTH 8 0
BBX 7 12 0 0
BITMAP
1C
30
00
7C
06
02
3E
62
C2
C2
C6
7A
ENDCHAR
STARTCHAR acircumflex
ENCODING 226
SWIDTH 500 0
DWIDTH 8 0
BBX 7 12 0 0
BITMAP
18
24
00
7C
06
02
3E
62
C2
C2
C6
7A
ENDCHAR
STARTCHAR atilde
ENCODING 227
SWIDTH 500 0
DWIDTH 8 0
BBX 7 12 0 0
BITMAP
32
4C
00
7C
06
02
3E
62
C2
C2
C6
7A
ENDCHAR
STARTCHAR adieresis
ENCODING 228
SWIDTH 500 0
DWIDTH 8 0
BBX 7 11 0 0
BITMAP
64
24
7C
06
02
3E
62
C2
C2
C6
7A
ENDCHAR
STARTCHAR aring
ENCODING 229
SWIDTH 500 0
DWIDTH 8 0
BBX 7 13 0 0
BITMAP
18
24
18
00
7C
06
02
3E
62
C2
C2
C6
7A
ENDCHAR
STARTCHAR ae
ENCODING 230
SWIDTH 833 0
DWIDTH 13 0
BBX 13 9 0 0
BITMAP
7DE0
0730
0218
1FF8
6200
C200
C200
4700
7DF8
ENDCHAR
STARTCHAR ccedilla
ENCODING 231
SWIDTH 500 0
DWIDTH 8 0
BBX 7 13 1 -4
BITMAP
7C
C0
80
80
80
80
C0
60
3E
10
18
04
3C
ENDCHAR
STARTCHAR egrave
ENCODING 232
SWIDTH 556 0
DWIDTH 9 0
BBX 7 12 1 0
BITMAP
70
1C
00
3C
66
C2
82
FE
80
80
C0
3E
ENDCHAR
STARTCHAR eacute
ENCODING 233
SWIDTH 556 0
DWIDTH 9 0
BBX 7 12 1 0
BITMAP
1C
70
00
3C
66
C2
82
FE
80
80
C0
3E
ENDCHAR
STARTCHAR ecircumflex
ENCODING 234
SWIDTH 556 0
DWIDTH 9 0
BBX 7 12 1 0
BITMAP
38
6C
00
3C
66
C2
82
FE
80
80
C0
3E
ENDCHAR
STARTCHAR edieresis
ENCODING 235
SWIDTH 556 0
DWIDTH 9 0
BBX 7 11 1 0
BITMAP
6C
44
3C
66
C2
82
FE
80
80
C0
3E
ENDCHAR
STARTCHAR igrave
ENCODING 236
SWIDTH 222 0
DWIDTH 4 0
BBX 4 12 0 0
BITMAP
C0
70
00
40
40
40
40
40
40
40
40
40
ENDCHAR
STARTCHAR iacute
ENCODING 237
SWIDTH 222 0
DWIDTH 4 0
BBX 4 12 0 0
BITMAP
70
C0
00
40
40
40
40
40
40
40
40
40
ENDCHAR
STARTCHAR icircumflex
ENCODING 238
SWIDTH 222 0
DWIDTH 4 0
BBX 4 12 0 0
BITMAP
E0
90
00
40
40
40
40
40
40
40
40
40
ENDCHAR
STARTCHAR idieresis
ENCODING 239
SWIDTH 222 0
DWIDTH 4 0
BBX 5 11 -1 0
BITMAP
C8
C8
20
20
20
20
20
20
20
20
20
ENDCHAR
STARTCHAR eth
ENCODING 240
SWIDTH 556 0
DWIDTH 9 0
BBX 7 12 1 0
BITMAP
44
78
2C
04
7E
C6
86
82
82
86
C4
78
ENDCHAR
STARTCHAR ntilde
ENCODING 241
SWIDTH 556 0
DWIDTH 9 0
BBX 7 12 1 0
BITMAP
64
1C
00
BC
EC
C6
86
86
86
86
86
86
ENDCHAR
STARTCHAR ograve
ENCODING 242
SWIDTH 556 0
DWIDTH 9 0
BBX 7 12 1 0
BITMAP
70
1C
00
38
4C
86
82
82
82
86
CC
38
ENDCHAR
STARTCHAR oacute
ENCODING 243
SWIDTH 556 0
DWIDTH 9 0
BBX 7 12 1 0
BITMAP
1C
70
00
38
4C
86
82
82
82
86
CC
38
ENDCHAR
STARTCHAR ocircumflex
ENCODING 244
SWIDTH 556 0
DWIDTH 9 0
BBX 7 12 1 0
BITMAP
38
6C
00
38
4C
86
82
82
82
86
CC
38
ENDCHAR
STARTCHAR otilde
ENCODING 245
SWIDTH 556 0
DWIDTH 9 0
BBX 7 12 1 0
BITMAP
64
1C
00
38
4C
86
82
82
82
86
CC
38
ENDCHAR
STARTCHAR odieresis
ENCODING 246
SWIDTH 556 0
DWIDTH 9 0
BBX 7 11 1 0
BITMAP
6C
44
38
4C
86
82
82
82
86
CC
38
ENDCHAR
STARTCHAR divide
ENCODING 247
SWIDTH 600 0
DWIDTH 10 0
BBX 8 8 1 0
BITMAP
18
18
00
FF
00
00
18
18
ENDCHAR
STARTCHAR oslash
ENCODING 248
SWIDTH 556 0
DWIDTH 9 0
BBX 7 11 1 -1
BITMAP
04
3C
4C
8E
92
92
B2
A6
EC
78
40
ENDCHAR
STARTCHAR ugrave
ENCODING 249
SWIDTH 556 0
DWIDTH 9 0
BBX 7 12 1 0
BITMAP
70
1C
00
86
86
86
86
86
86
C6
CE
7A
ENDCHAR
STARTCHAR uacute
ENCODING 250
SWIDTH 556 0
DWIDTH 9 0
BBX 7 12 1 0
BITMAP
1C
70
00
86
86
86
86
86
86
C6
CE
7A
ENDCHAR
STARTCHAR ucircumflex
ENCODING 251
SWIDTH 556 0
DWIDTH 9 0
BBX 7 12 1 0
BITMAP
38
6C
00
86
86
86
86
86
86
C6
CE
7A
ENDCHAR
STARTCHAR udieresis
ENCODING 252
SWIDTH 556 0
DWIDTH 9 0
BBX 7 11 1 0
BITMAP
6C
44
86
86
86
86
86
86
C6
CE
7A
ENDCHAR
STARTCHAR yacute
ENCODING 253
SWIDTH 500 0
DWIDTH 8 0
BBX 8 16 0 -4
BITMAP
0C
30
00
41
C3
43
42
62
66
24
3C
18
18
30
30
20
ENDCHAR
STARTCHAR thorn
ENCODING 254
SWIDTH 556 0
DWIDTH 9 0
BBX 7 15 1 -4
BITMAP
80
80
F0
9C
86
82
82
82
82
8E
FC
80
80
80
80
ENDCHAR
STARTCHAR ydieresis
ENCODING 255
SWIDTH 500 0
DWIDTH 8 0
BBX 8 15 0 -4
BITMAP
66
24
41
C3
43
42
62
66
24
3C
18
18
30
30
20
ENDCHAR
STARTCHAR .notdef
ENCODING -1
SWIDTH 500 0
DWIDTH 8 0
BBX 8 11 0 0
BITMAP
FF
C3
C3
A5
99
91
99
A5
C3
C3
FF
ENDCHAR
STARTCHAR quoteright
ENCODING -1
SWIDTH 222 0
DWIDTH 4 0
BBX 3 4 0 7
BITMAP
20
60
40
C0
ENDCHAR
STARTCHAR quoteleft
ENCODING -1
SWIDTH 222 0
DWIDTH 4 0
BBX 3 4 0 7
BITMAP
C0
40
60
20
ENDCHAR
STARTCHAR fraction
ENCODING -1
SWIDTH 167 0
DWIDTH 3 0
BBX 8 11 -3 0
BITMAP
01
03
02
04
0C
08
10
30
20
40
80
ENDCHAR
STARTCHAR florin
ENCODING -1
SWIDTH 611 0
DWIDTH 10 0
BBX 9 15 0 -4
BITMAP
0380
0600
0400
0400
0400
3F00
0C00
0C00
0800
0800
0800
1800
1800
3000
E000
ENDCHAR
STARTCHAR quotedblleft
ENCODING -1
SWIDTH 389 0
DWIDTH 6 0
BBX 6 4 0 7
BITMAP
D0
58
48
2C
ENDCHAR
STARTCHAR guilsinglleft
ENCODING -1
SWIDTH 278 0
DWIDTH 4 0
BBX 2 6 1 1
BITMAP
40
40
C0
C0
40
40
ENDCHAR
STARTCHAR guilsinglright
ENCODING -1
SWIDTH 278 0
DWIDTH 4 0
BBX 2 6 1 1
BITMAP
80
C0
40
40
C0
80
ENDCHAR
STARTCHAR fi
ENCODING -1
SWIDTH 500 0
DWIDTH 8 0
BBX 7 11 0 0
BITMAP
3E
62
FE
62
62
62
62
62
62
62
62
ENDCHAR
STARTCHAR fl
ENCODING -1
SWIDTH 500 0
DWIDTH 8 0
BBX 7 11 0 0
BITMAP
3E
62
FA
62
62
62
62
62
62
62
62
ENDCHAR
STARTCHAR endash
ENCODING -1
SWIDTH 500 0
DWIDTH 8 0
BBX 8 1 0 4
BITMAP
FF
ENDCHAR
STARTCHAR dagger
ENCODING -1
SWIDTH 389 0
DWIDTH 6 0
BBX 5 11 1 0
BITMAP
60
60
60
F8
60
60
60
60
60
60
60
ENDCHAR
STARTCHAR daggerdbl
ENCODING -1
SWIDTH 389 0
DWIDTH 6 0
BBX 5 11 1 0
BITMAP
60
60
60
F8
60
60
60
F8
60
60
60
ENDCHAR
STARTCHAR bullet
ENCODING -1
SWIDTH 500 0
DWIDTH 8 0
BBX 6 5 1 3
BITMAP
78
FC
FC
78
78
ENDCHAR
STARTCHAR quotesinglbase
ENCODING -1
SWIDTH 222 0
DWIDTH 4 0
BBX 3 4 0 -2
BITMAP
60
60
40
C0
ENDCHAR
STARTCHAR quotedblbase
ENCODING -1
SWIDTH 389 0
DWIDTH 6 0
BBX 6 4 0 -2
BITMAP
6C
68
58
D0
ENDCHAR
STARTCHAR quotedblright
ENCODING -1
SWIDTH 389 0
DWIDTH 6 0
BBX 6 4 0 7
BITMAP
6C
68
58
D0
ENDCHAR
STARTCHAR ellipsis
ENCODING -1
SWIDTH 1000 0
DWIDTH 16 0
BBX 12 2 2 0
BITMAP
8610
8610
ENDCHAR
STARTCHAR perthousand
ENCODING -1
SWIDTH 1000 0
DWIDTH 16 0
BBX 16 11 0 0
BITMAP
7100
DB00
8A00
8A00
7400
0400
0BCE
0A53
1671
125B
21CE
ENDCHAR
STARTCHAR circumflex
ENCODING -1
SWIDTH 222 0
DWIDTH 4 0
BBX 4 2 0 9
BITMAP
E0
90
ENDCHAR
STARTCHAR tilde
ENCODING -1
SWIDTH 222 0
DWIDTH 4 0
BBX 6 2 -1 9
BITMAP
E4
98
ENDCHAR
STARTCHAR breve
ENCODING -1
SWIDTH 222 0
DWIDTH 4 0
BBX 5 2 -1 9
BITMAP
88
70
ENDCHAR
STARTCHAR dotaccent
ENCODING -1
SWIDTH 222 0
DWIDTH 4 0
BBX 2 2 1 9
BITMAP
C0
80
ENDCHAR
STARTCHAR ring
ENCODING -1
SWIDTH 222 0
DWIDTH 4 0
BBX 3 3 0 9
BITMAP
60
A0
60
ENDCHAR
STARTCHAR hungarumlaut
ENCODING -1
SWIDTH 222 0
DWIDTH 4 0
BBX 6 4 -1 8
BITMAP
24
6C
D8
90
ENDCHAR
STARTCHAR ogonek
ENCODING -1
SWIDTH 222 0
DWIDTH 4 0
BBX 4 4 0 -4
BITMAP
60
80
90
E0
ENDCHAR
STARTCHAR caron
ENCODING -1
SWIDTH 222 0
DWIDTH 4 0
BBX 4 2 0 9
BITMAP
B0
60
ENDCHAR
STARTCHAR emdash
ENCODING -1
SWIDTH 1000 0
DWIDTH 16 0
BBX 16 1 0 4
BITMAP
FFFF
ENDCHAR
STARTCHAR Lslash
ENCODING -1
SWIDTH 444 0
DWIDTH 7 0
BBX 7 11 0 0
BITMAP
60
60
60
60
78
E0
60
60
60
60
7E
ENDCHAR
STARTCHAR OE
ENCODING -1
SWIDTH 1000 0
DWIDTH 16 0
BBX 15 11 0 0
BITMAP
1F7E
31C0
60FE
4040
C040
C040
4040
60C0
60C0
33C0
1F7E
ENDCHAR
STARTCHAR dotlessi
ENCODING -1
SWIDTH 222 0
DWIDTH 4 0
BBX 1 9 1 0
BITMAP
80
80
80
80
80
80
80
80
80
ENDCHAR
STARTCHAR lslash
ENCODING -1
SWIDTH 222 0
DWIDTH 4 0
BBX 4 11 0 0
BITMAP
40
40
40
50
60
C0
40
40
40
40
40
ENDCHAR
STARTCHAR oe
ENCODING -1
SWIDTH 944 0
DWIDTH 15 0
BBX 13 9 1 0
BITMAP
38F0
C598
8308
83F8
8200
8200
C700
4D80
38F8
ENDCHAR
STARTCHAR trademark
ENCODING -1
SWIDTH 990 0
DWIDTH 16 0
BBX 14 7 1 4
BITMAP
F98C
218C
2194
2154
2174
2164
2124
ENDCHAR
STARTCHAR minus
ENCODING -1
SWIDTH 600 0
DWIDTH 10 0
BBX 8 1 1 4
BITMAP
FF
ENDCHAR
STARTCHAR Scaron
ENCODING -1
SWIDTH 611 0
DWIDTH 10 0
BBX 8 14 1 0
BITMAP
24
18
00
FE
80
80
FC
0E
03
01
01
03
06
FC
ENDCHAR
STARTCHAR Ydieresis
ENCODING -1
SWIDTH 556 0
DWIDTH 9 0
BBX 8 14 0 0
BITMAP
32
32
00
C1
41
63
22
36
1C
08
08
08
08
08
ENDCHAR
STARTCHAR Zcaron
ENCODING -1
SWIDTH 500 0
DWIDTH 8 0
BBX 6 14 1 0
BITMAP
48
38
00
FC
04
04
0C
18
30
60
C0
80
80
FC
ENDCHAR
STARTCHAR scaron
ENCODING -1
SWIDTH 500 0
DWIDTH 8 0
BBX 8 12 0 0
BITMAP
3C
18
00
7E
40
60
7E
06
03
02
06
FC
ENDCHAR
STARTCHAR zcaron
ENCODING -1
SWIDTH 444 0
DWIDTH 7 0
BBX 7 12 0 0
BITMAP
2C
18
00
7E
06
0C
18
30
60
40
C0
FE
ENDCHAR
STARTCHAR Delta
ENCODING -1
SWIDTH 707 0
DWIDTH 11 0
BBX 11 11 0 0
BITMAP
0600
0A00
0B00
1900
1100
1180
2080
20C0
6040
4060
FFE0
ENDCHAR
STARTCHAR Omega
ENCODING -1
SWIDTH 795 0
DWIDTH 13 0
BBX 11 11 1 0
BITMAP
1F00
3180
40C0
C040
C060
8060
C040
4040
40C0
2080
F1E0
ENDCHAR
STARTCHAR pi
ENCODING -1
SWIDTH 621 0
DWIDTH 10 0
BBX 10 8 0 0
BITMAP
FFC0
3100
2100
2100
2100
2100
6100
6100
ENDCHAR
STARTCHAR Euro
ENCODING -1
SWIDTH 611 0
DWIDTH 10 0
BBX 9 11 1 0
BITMAP
1F80
3000
6000
FE00
4000
FE00
6000
3000
3800
1E00
0780
ENDCHAR
STARTCHAR estimated
ENCODING -1
SWIDTH 844 0
DWIDTH 14 0
BBX 12 11 1 0
BITMAP
1F00
20C0
4020
C020
C030
C030
FFC0
C000
C000
4040
3F80
ENDCHAR
STARTCHAR partialdiff
ENCODING -1
SWIDTH 592 0
DWIDTH 9 0
BBX 8 12 1 0
BITMAP
78
04
02
02
3B
C7
83
82
82
86
C4
78
ENDCHAR
STARTCHAR product
ENCODING -1
SWIDTH 758 0
DWIDTH 12 0
BBX 12 12 0 -1
BITMAP
FFF0
30C0
30C0
30C0
30C0
30C0
30C0
30C0
30C0
30C0
30C0
30C0
ENDCHAR
STARTCHAR summation
ENCODING -1
SWIDTH 601 0
DWIDTH 10 0
BBX 9 12 0 -1
BITMAP
7F80
6000
3000
1000
0800
0C00
0400
0800
1000
2000
6000
FF80
ENDCHAR
STARTCHAR uni2219
ENCODING -1
SWIDTH 305 0
DWIDTH 5 0
BBX 1 2 2 3
BITMAP
80
80
ENDCHAR
STARTCHAR radical
ENCODING -1
SWIDTH 612 0
DWIDTH 10 0
BBX 9 15 1 -2
BITMAP
0080
0100
0100
0100
0100
0200
0200
C200
6200
2400
2400
3400
1400
1800
0800
ENDCHAR
STARTCHAR infinity
ENCODING -1
SWIDTH 810 0
DWIDTH 13 0
BBX 11 5 1 2
BITMAP
70C0
8B20
8420
8A20
71C0
ENDCHAR
STARTCHAR integral
ENCODING -1
SWIDTH 373 0
DWIDTH 6 0
BBX 6 16 0 -3
BITMAP
1C
10
30
20
20
20
30
30
30
30
10
10
10
30
20
E0
ENDCHAR
STARTCHAR approxequal
ENCODING -1
SWIDTH 605 0
DWIDTH 10 0
BBX 8 6 1 1
BITMAP
71
8E
00
71
9A
0E
ENDCHAR
STARTCHAR notequal
ENCODING -1
SWIDTH 605 0
DWIDTH 10 0
BBX 8 8 1 1
BITMAP
04
08
FF
08
10
10
FF
20
ENDCHAR
STARTCHAR lessequal
ENCODING -1
SWIDTH 605 0
DWIDTH 10 0
BBX 8 10 1 0
BITMAP
01
06
18
60
80
60
18
07
00
FF
ENDCHAR
STARTCHAR greaterequal
ENCODING -1
SWIDTH 605 0
DWIDTH 10 0
BBX 8 9 1 0
BITMAP
C0
38
06
01
06
38
C0
00
FF
ENDCHAR
STARTCHAR lozenge
ENCODING -1
SWIDTH 613 0
DWIDTH 10 0
BBX 8 13 1 -1
BITMAP
18
18
24
24
42
C2
81
C2
42
64
24
18
18
ENDCHAR
STARTCHAR uni02C9
ENCODING -1
SWIDTH 222 0
DWIDTH 4 0
BBX 4 1 0 10
BITMAP
F0
ENDCHAR
STARTCHAR uni03A9
ENCODING -1
SWIDTH 795 0
DWIDTH 13 0
BBX 11 11 1 0
BITMAP
1F00
3180
40C0
C040
C060
8060
C040
4040
40C0
2080
F1E0
ENDCHAR
STARTCHAR afii61289
ENCODING -1
SWIDTH 528 0
DWIDTH 8 0
BBX 7 12 1 0
BITMAP
38
64
44
44
48
48
50
60
C0
42
66
3C
ENDCHAR
STARTCHAR uni03BC
ENCODING -1
SWIDTH 556 0
DWIDTH 9 0
BBX 7 13 1 -4
BITMAP
86
86
86
86
86
86
C6
CE
FA
80
80
80
80
ENDCHAR
STARTCHAR uni2215
ENCODING -1
SWIDTH 167 0
DWIDTH 3 0
BBX 8 11 -3 0
BITMAP
01
03
02
04
0C
08
10
30
20
40
80
ENDCHAR
ENDFONT
